<svg width="58" height="58" viewBox="0 0 58 58" fill="none" xmlns="http://www.w3.org/2000/svg">
<path id="Exclude" fill-rule="evenodd" clip-rule="evenodd" d="M29 58C45.0162 58 58 45.0163 58 29C58 12.9837 45.0162 0 29 0C12.9838 0 0 12.9837 0 29C0 45.0163 12.9838 58 29 58ZM31.5428 35.4611C33.5009 35.4611 35.2114 34.4157 36.1331 32.8596H39.6364C39.3303 33.9338 38.8882 34.924 38.3101 35.8304C37.7319 36.7367 37.0178 37.5423 36.1677 38.2472C35.3516 38.9521 34.3654 39.506 33.2091 39.9088C32.053 40.2781 30.7438 40.4627 29.2815 40.4627C28.5216 40.4627 27.788 40.4032 27.0803 40.2842C26.4362 38.1034 24.3959 36.5101 21.9786 36.5101C21.491 36.5101 21.0188 36.5749 20.5702 36.6964C20.0507 36.1023 19.5879 35.4444 19.1816 34.7226C18.1615 32.8764 17.6514 30.7448 17.6514 28.328C17.6514 25.8775 18.1615 23.7628 19.1816 21.9837C20.2358 20.2046 21.6471 18.8451 23.4154 17.9052C25.1837 16.9317 27.139 16.445 29.2815 16.445C31.4098 16.445 33.2266 16.8697 34.7317 17.7192C34.7809 20.5739 37.1406 22.8732 40.0444 22.8732C42.9789 22.8732 45.3578 20.525 45.3578 17.6283C45.3578 14.7316 42.9789 12.3833 40.0444 12.3833C39.7186 12.3833 39.3998 12.4122 39.0902 12.4677C38.0961 11.8882 37.0199 11.4013 35.8617 11.007C33.9233 10.3357 31.7299 10 29.2815 10C26.527 10 23.9766 10.4364 21.6301 11.3091C19.2837 12.1819 17.2433 13.4239 15.509 15.0352C13.7747 16.6464 12.4144 18.5933 11.4282 20.8759C10.4761 23.125 10 25.609 10 28.328C10 31.047 10.4591 33.5477 11.3772 35.8304C12.3295 38.1129 13.6556 40.0767 15.356 41.7215C15.8187 42.1603 16.302 42.5729 16.8059 42.9592C17.3572 45.2755 19.4639 47 21.9786 47C22.8473 47 23.6672 46.7942 24.3914 46.4294C25.8816 46.7483 27.4436 46.9077 29.0774 46.9077C32.002 46.9077 34.6034 46.3874 36.8818 45.3468C39.1603 44.3062 41.0646 42.8796 42.5948 41.0669C44.1592 39.2207 45.2983 37.1059 46.0125 34.7226C46.7606 32.3393 47.0836 29.8049 46.9817 27.1195H35.8319C34.8651 25.817 33.3041 24.9712 31.5428 24.9712C28.6083 24.9712 26.2294 27.3194 26.2294 30.2162C26.2294 33.1129 28.6083 35.4611 31.5428 35.4611Z" fill="#373B68"/>
</svg>
